<?xml version="1.0" encoding="UTF-8"?>
<svg xmlns="http://www.w3.org/2000/svg" xmlns:xlink="http://www.w3.org/1999/xlink" width="64px" height="0px" viewBox="0 0 256 256" version="1.1">
<g id="surface1">
<path style=" stroke:none;fill-rule:nonzero;fill:rgb(6.666667%,18.039216%,31.764706%);fill-opacity:1;" d="M 256 128 C 256 198.691406 198.691406 256 128 256 C 57.308594 256 0 198.691406 0 128 C 0 57.308594 57.308594 0 128 0 C 198.691406 0 256 57.308594 256 128 Z M 256 128 "/>
<path style=" stroke:none;fill-rule:nonzero;fill:rgb(100%,100%,100%);fill-opacity:1;" d="M 114.550781 154.425781 L 119.25 127.601562 C 114.425781 123.875 112.523438 117.476562 114.523438 111.726562 C 116.5 105.976562 121.949219 102.101562 128.050781 102.125 L 128.050781 72.351562 L 91.75 72.351562 C 88.023438 72.351562 84.449219 73.824219 81.800781 76.476562 C 79.175781 79.101562 77.675781 82.699219 77.675781 86.425781 L 77.675781 155.375 C 77.675781 156.675781 77.949219 157.949219 78.523438 159.125 C 81.574219 165.273438 93.574219 185.050781 128 200.25 L 128 155.523438 C 123.5 155.550781 119 155.175781 114.550781 154.425781 Z M 114.550781 154.425781 "/>
<path style=" stroke:none;fill-rule:nonzero;fill:rgb(100%,100%,100%);fill-opacity:1;" d="M 164.226562 72.25 L 128 72.25 L 128 102.023438 C 134.074219 102 139.476562 105.824219 141.5 111.523438 C 143.5 117.25 141.675781 123.625 136.925781 127.375 L 141.625 154.324219 C 137.125 155.101562 132.574219 155.5 128.023438 155.5 L 128.023438 200.148438 C 162.398438 185.023438 174.449219 165.175781 177.5 159.023438 C 178.074219 157.851562 178.351562 156.574219 178.351562 155.273438 L 178.351562 86.375 C 178.375 82.625 176.898438 79.023438 174.25 76.375 C 171.601562 73.726562 167.976562 72.25 164.226562 72.25 Z M 164.226562 72.25 "/>
</g>
</svg>
